<?xml version="1.0" standalone="no"?>
<!DOCTYPE svg PUBLIC "-//W3C//DTD SVG 20010904//EN"
 "http://www.w3.org/TR/2001/REC-SVG-20010904/DTD/svg10.dtd">
<svg version="1.0" xmlns="http://www.w3.org/2000/svg"
 width="300.000000pt" height="144.000000pt" viewBox="0 0 300.000000 144.000000"
 preserveAspectRatio="xMidYMid meet">
<metadata>
Created by potrace 1.10, written by Peter Selinger 2001-2011
</metadata>
<g transform="translate(0.000000,144.000000) scale(0.050000,-0.050000)"
fill="#ffffff" stroke="none">
<path d="M1539 2852 c-142 -41 -362 -164 -481 -270 -59 -53 -157 -121 -218
-151 -779 -390 -1042 -984 -660 -1486 45 -60 89 -146 101 -197 109 -488 584
-747 1021 -556 68 29 84 28 320 -29 753 -183 1581 -211 2348 -81 259 45 416
63 820 98 313 27 555 67 730 120 146 44 285 121 244 135 -15 5 -42 -5 -60 -21
-177 -159 -852 -243 -1954 -243 -1070 0 -1457 40 -1834 191 -58 23 -136 53
-173 67 l-67 25 54 42 c303 239 1972 345 3060 194 130 -18 154 -25 70 -19
-942 69 -1706 57 -2295 -34 -144 -22 -195 -55 -90 -59 145 -5 373 4 545 22
599 62 2133 74 2327 19 91 -26 157 10 329 177 231 225 317 430 299 715 -6 91
-2 174 7 183 67 67 -45 264 -122 216 -35 -22 -325 292 -293 317 57 44 -83 393
-157 393 -15 0 -53 -22 -84 -48 l-57 -48 8 79 c6 69 -1 86 -69 147 -160 147
-378 42 -349 -168 3 -18 -7 -23 -28 -15 -240 92 -711 203 -1091 256 -255 36
-1280 32 -1530 -6 -170 -25 -185 -25 -260 12 -97 49 -287 59 -411 23z m400
-51 c266 -136 322 -435 133 -710 -157 -228 -262 -249 -409 -81 -78 89 -78 108
-1 181 348 327 328 543 -34 371 -533 -252 -1036 -1368 -799 -1773 138 -235
483 -227 761 18 l100 88 -7 182 c-21 597 555 1249 847 957 60 -60 68 -62 87
-31 24 39 197 97 287 97 83 0 76 -26 -134 -479 -202 -435 -211 -461 -153 -461
101 0 196 138 380 550 199 446 199 446 405 465 124 11 131 7 96 -59 -20 -37
-15 -36 45 9 202 153 417 103 417 -98 0 -61 -37 -171 -131 -386 -125 -288
-138 -341 -82 -341 64 0 137 117 165 263 111 596 682 1054 899 722 147 -223
-249 -765 -559 -765 -43 0 -44 -145 -2 -180 148 -123 556 292 899 914 196 355
265 401 340 223 l30 -73 -70 -53 c-87 -67 -87 -97 5 -298 43 -97 77 -206 82
-268 l9 -105 80 72 c85 77 187 128 255 128 86 0 -42 -167 -143 -187 -70 -14
-115 -47 -254 -186 -270 -270 -459 -314 -627 -146 -81 81 -45 155 51 105 237
-122 382 87 328 474 l-26 190 -189 -280 c-455 -676 -872 -916 -1071 -618 l-42
63 -100 -96 c-153 -145 -310 -176 -408 -78 -77 77 -59 159 156 683 58 141 -10
179 -124 71 -49 -46 -109 -154 -202 -365 -224 -503 -210 -482 -331 -498 -57
-8 -131 -20 -164 -26 -54 -11 -59 -8 -49 31 10 39 1 36 -86 -28 -163 -119
-317 -131 -350 -27 -16 51 -32 48 -98 -21 -100 -105 -268 -154 -350 -102 -22
14 -46 -6 -99 -85 -466 -692 -1363 -605 -1398 136 -47 999 1007 2231 1635
1911z m3213 -52 c47 -71 8 -193 -92 -294 -86 -86 -138 -102 -89 -27 28 44 28
51 -1 75 -79 67 -90 83 -90 130 0 133 204 220 272 116z m-2432 -55 c98 -50 70
-133 -66 -194 l-75 -34 92 -103 c80 -89 88 -105 57 -117 -27 -10 -61 15 -139
100 l-102 113 -49 -104 c-27 -58 -64 -108 -83 -111 -51 -10 -44 25 44 221 l77
175 -49 0 c-31 0 -47 9 -42 25 17 51 252 71 335 29z m506 -15 c-13 -47 -53
-42 -62 8 -5 22 6 33 33 33 30 0 37 -10 29 -41z m414 26 c-1 -34 -37 -69 -58
-56 -37 22 -25 71 18 71 22 0 40 -7 40 -15z m-666 -134 c3 -1 -6 -36 -18 -77
-40 -131 55 -107 143 35 68 110 115 83 51 -29 -72 -126 -19 -131 100 -9 89 91
186 126 204 74 6 -16 -9 -25 -41 -25 -66 0 -79 -25 -49 -91 28 -60 -20 -116
-90 -105 -48 8 -46 44 4 56 29 7 36 18 24 38 -14 22 -30 18 -85 -22 -90 -67
-130 -79 -156 -47 -18 21 -35 22 -84 4 -53 -19 -66 -18 -84 11 -19 31 -25 31
-75 2 -131 -78 -142 29 -15 145 71 64 127 77 171 40z m578 -73 c-19 -45 -29
-87 -24 -93 20 -19 128 76 152 134 14 34 37 61 52 61 34 0 36 -44 4 -76 -43
-43 9 -25 76 26 103 79 141 59 76 -40 -80 -122 -25 -143 98 -35 194 169 279
163 224 -17 -68 -221 -146 -289 -270 -238 -43 18 -55 31 -37 42 13 8 42 6 62
-5 46 -24 125 21 145 84 17 53 0 72 -37 42 -15 -13 -58 -23 -95 -22 -38 1 -90
-1 -118 -5 -46 -5 -50 1 -50 69 0 93 -14 94 -81 5 -56 -73 -89 -89 -89 -42 0
22 -16 20 -74 -10 -137 -70 -156 44 -30 187 46 53 53 26 16 -67z"/>
<path d="M4472 2055 c-78 -82 -191 -272 -222 -371 l-14 -47 66 34 c169 88 349
340 311 437 -19 51 -54 38 -141 -53z"/>
<path d="M2276 1765 c-285 -295 -358 -869 -81 -636 59 49 285 544 285 624 0
107 -106 114 -204 12z"/>
<path d="M2540 2589 c-31 -92 -25 -96 76 -46 87 43 107 84 52 105 -71 27 -105
12 -128 -59z"/>
<path d="M2821 2487 c-23 -29 -37 -58 -31 -63 12 -13 110 76 110 99 0 33 -38
16 -79 -36z"/>
<path d="M4080 2500 c-87 -87 -43 -104 53 -20 58 51 62 60 28 60 -23 0 -59
-18 -81 -40z"/>
<path d="M5120 609 c50 -16 110 -29 133 -29 71 0 107 -22 107 -63 0 -33 12
-38 90 -33 168 11 62 76 -205 128 -186 35 -243 34 -125 -3z"/>
<path d="M2200 583 c0 -9 -36 -27 -79 -40 -110 -33 -121 -63 -22 -63 75 0 81
-4 81 -56 0 -78 34 -104 134 -104 78 0 86 4 86 50 0 37 -11 50 -40 50 -22 0
-40 -9 -40 -20 0 -11 -9 -20 -20 -20 -11 0 -20 36 -20 80 0 77 1 79 60 67 52
-10 60 -6 60 31 0 37 -11 42 -100 42 -55 0 -100 -8 -100 -17z"/>
<path d="M3850 460 l0 -140 66 0 c64 0 67 3 54 60 -10 47 -6 60 18 60 41 0 42
38 2 53 -54 20 -31 46 30 34 52 -10 60 -6 60 31 0 38 -11 42 -115 42 l-115 0
0 -140z"/>
<path d="M2429 440 c1 -101 7 -120 36 -120 21 0 35 15 35 39 0 21 9 44 20 51
11 7 20 -10 20 -39 0 -40 10 -51 45 -51 42 0 45 9 45 120 0 111 -3 120 -45
120 -35 0 -45 -11 -45 -51 0 -29 -9 -46 -20 -39 -11 7 -20 30 -20 51 0 24 -14
39 -36 39 -30 0 -35 -18 -35 -120z"/>
<path d="M2670 440 c0 -111 3 -120 45 -120 42 0 45 9 45 120 0 111 -3 120 -45
120 -42 0 -45 -9 -45 -120z"/>
<path d="M2808 532 c-39 -102 1 -202 83 -208 70 -5 80 0 80 35 0 45 -61 58
-78 16 -5 -14 -11 8 -11 48 -2 64 3 72 38 63 31 -8 40 -1 40 32 0 50 -133 63
-152 14z"/>
<path d="M3010 440 c0 -129 74 -187 96 -75 l9 45 2 -45 c2 -34 15 -45 53 -45
51 0 55 110 5 143 -12 7 -11 17 3 26 32 20 27 71 -7 71 -16 0 -38 -16 -49 -35
-20 -33 -21 -33 -21 0 -1 23 -17 35 -46 35 -42 0 -45 -9 -45 -120z"/>
<path d="M3249 440 l0 -120 86 0 c72 0 85 6 85 40 0 22 -13 40 -30 40 -16 0
-30 -10 -30 -21 0 -12 -9 -16 -20 -9 -30 19 -24 50 10 50 17 0 30 9 30 20 0
11 -13 20 -30 20 -16 0 -30 9 -30 20 0 12 21 15 50 8 41 -10 50 -5 50 30 0 36
-12 42 -85 42 l-86 0 0 -120z"/>
<path d="M3469 440 c0 -131 60 -183 76 -65 l7 55 27 -55 c53 -107 111 -74 111
65 0 101 -6 120 -35 120 -26 0 -35 -17 -35 -65 l-1 -65 -41 65 c-69 107 -109
87 -109 -55z"/>
<path d="M4104 440 c-3 -112 0 -120 41 -120 42 0 45 9 46 120 1 183 -82 183
-87 0z"/>
<path d="M4230 440 c0 -131 59 -183 75 -65 l7 55 27 -55 c53 -107 111 -74 112
65 0 102 -5 120 -35 120 -27 0 -36 -16 -37 -65 l-2 -65 -32 65 c-58 117 -115
89 -115 -55z"/>
<path d="M4488 532 c-40 -104 1 -202 87 -208 l85 -6 0 71 c0 58 -7 71 -41 71
-32 0 -39 -9 -30 -38 7 -21 3 -44 -8 -51 -13 -8 -21 14 -21 58 0 67 4 71 50
59 41 -10 50 -5 50 30 0 51 -153 64 -172 14z"/>
<path d="M4700 440 l0 -120 90 0 c77 0 90 6 90 40 0 45 -39 53 -76 16 -19 -19
-24 -16 -24 10 0 19 16 34 35 35 33 0 33 2 0 27 -50 38 -43 55 15 40 41 -10
50 -5 50 30 0 36 -12 42 -90 42 l-90 0 0 -120z"/>
<path d="M4928 440 c0 -103 5 -120 36 -120 25 0 36 15 36 50 0 28 9 50 20 50
11 0 20 -22 20 -50 0 -35 11 -50 37 -50 35 0 42 65 25 225 -1 8 -40 15 -88 15
l-85 0 -1 -120z"/>
<path d="M5173 547 c-38 -39 -12 -127 37 -127 34 0 50 -11 50 -34 0 -26 -5
-29 -24 -10 -37 37 -76 28 -76 -17 0 -36 11 -41 85 -35 108 8 134 120 30 132
-30 4 -55 15 -55 26 0 10 23 13 50 6 41 -10 50 -5 50 30 0 42 -112 64 -147 29z"/>
</g>
</svg>
