<?xml version="1.0" standalone="no"?>
<!DOCTYPE svg PUBLIC "-//W3C//DTD SVG 20010904//EN"
 "http://www.w3.org/TR/2001/REC-SVG-20010904/DTD/svg10.dtd">
<svg version="1.0" xmlns="http://www.w3.org/2000/svg"
 width="1680.000000pt" height="1260.000000pt" viewBox="0 0 1680.000000 1260.000000"
 preserveAspectRatio="xMidYMid meet">
<g transform="translate(0.000000,1260.000000) scale(0.100000,-0.100000)"
fill="#ffffff" stroke="none">
<path d="M8010 12587 c0 -7 -78 -90 -172 -185 -95 -94 -938 -936 -1873 -1871
l-1699 -1700 29 -32 c219 -229 3793 -3799 3803 -3797 7 2 115 105 240 230
2673 2674 3582 3587 3582 3598 0 10 -1319 1336 -3392 3408 -186 185 -338 343
-338 350 0 7 -15 12 -40 12 -22 0 -40 -4 -40 -9 0 -12 227 -241 2133 -2151
878 -881 1597 -1606 1597 -1612 0 -6 -381 -393 -847 -860 -467 -466 -1305
-1307 -1863 -1868 -559 -561 -1023 -1020 -1031 -1020 -25 0 -3738 3723 -3739
3749 0 8 344 359 765 780 952 954 2974 2985 2975 2989 0 1 -20 2 -45 2 -30 0
-45 -4 -45 -13z"/>
<path d="M7178 11522 l-921 -923 24 -23 c42 -40 122 -57 249 -54 l113 3 2 58
c5 100 54 151 210 218 11 5 56 18 100 30 70 18 109 21 316 20 l236 0 20 27
c10 15 22 34 26 42 4 8 16 29 27 45 11 17 23 37 27 45 34 73 174 250 255 325
73 67 215 170 283 205 11 6 32 18 47 28 73 48 98 60 103 53 5 -9 -15 -76 -41
-139 -8 -18 -14 -40 -14 -48 0 -9 -7 -37 -15 -63 -57 -184 -100 -442 -100
-606 l0 -100 70 -48 c38 -26 82 -59 97 -74 29 -27 55 -26 64 4 3 10 11 32 18
48 8 17 28 66 46 110 18 44 38 94 45 110 60 139 71 166 90 215 25 65 49 108
60 109 6 1 13 -27 16 -61 8 -84 46 -334 74 -494 32 -177 29 -394 -6 -481 -11
-27 -10 -37 3 -65 133 -274 160 -718 62 -1003 -8 -23 -14 -51 -14 -63 0 -13
-5 -32 -10 -43 -6 -10 -14 -38 -19 -61 -5 -24 -15 -59 -21 -78 -33 -93 -43
-117 -56 -143 -8 -16 -14 -35 -14 -44 0 -8 -6 -27 -14 -41 -8 -15 -21 -45 -29
-67 -8 -22 -22 -59 -31 -82 -36 -95 -44 -120 -60 -173 -32 -115 -46 -191 -45
-257 2 -139 24 -159 95 -83 79 84 104 112 142 160 20 25 41 50 47 55 17 15
165 213 165 220 0 4 11 21 24 38 41 54 186 332 186 355 0 6 7 24 15 41 8 17
22 45 30 62 8 17 15 37 15 44 0 7 6 26 14 42 26 52 46 104 46 118 0 7 6 26 14
42 56 113 56 140 1 293 -21 58 -66 193 -75 225 -13 48 -32 98 -46 127 -44 85
22 178 141 198 38 7 77 16 175 40 25 6 78 15 118 21 40 5 84 14 98 19 14 6 45
10 69 10 25 0 92 7 151 16 82 12 156 14 328 11 121 -3 238 -9 259 -12 36 -7
38 -6 29 11 -6 11 -547 557 -1202 1214 l-1191 1194 -921 -922z"/>
<path d="M7990 11264 c-24 -19 -59 -52 -78 -72 -61 -67 -164 -207 -185 -252
-4 -8 -16 -28 -26 -45 -29 -45 -27 -75 5 -75 14 0 35 -5 47 -12 12 -6 38 -15
57 -19 19 -5 61 -15 94 -24 32 -9 62 -13 66 -8 5 4 13 55 19 113 14 127 37
275 57 352 8 32 14 62 14 68 0 18 -25 9 -70 -26z"/>
<path d="M6985 10671 c-129 -37 -175 -73 -175 -137 0 -25 6 -47 15 -54 8 -7
15 -17 15 -23 0 -5 7 -15 16 -21 22 -16 9 -62 -19 -70 -37 -10 -389 -6 -437 5
-25 6 -63 14 -85 18 -51 11 -115 43 -140 71 l-19 21 -128 -128 c-70 -70 -128
-131 -128 -136 0 -8 96 -134 116 -152 6 -5 31 -37 56 -70 70 -93 79 -98 126
-85 23 6 103 15 179 21 76 5 165 14 198 18 33 5 115 10 181 10 133 1 194 -13
310 -69 52 -25 126 -88 178 -150 12 -14 29 -66 41 -122 15 -75 -104 -200 -300
-315 -35 -21 -278 -139 -325 -158 -76 -31 -78 -36 -46 -100 16 -30 35 -55 43
-55 21 0 240 105 368 176 33 18 83 45 110 59 28 14 59 31 70 38 83 51 105 62
145 68 25 4 70 12 100 18 30 6 116 14 190 17 74 2 142 7 151 10 24 7 69 76 90
137 41 118 16 202 -88 295 -47 42 -64 64 -60 76 4 9 15 16 25 16 11 0 25 7 32
15 7 8 19 15 26 15 8 0 24 6 35 13 19 11 25 7 69 -42 27 -29 65 -86 84 -126
34 -69 36 -80 36 -167 -1 -55 -7 -109 -15 -133 -8 -22 -15 -46 -15 -53 0 -7
-23 -61 -51 -120 -27 -59 -54 -116 -58 -127 -5 -11 -14 -33 -21 -50 -33 -82
-66 -233 -80 -369 -5 -49 -14 -110 -19 -135 -13 -61 -30 -153 -40 -222 -5 -30
-13 -65 -20 -77 -6 -11 -11 -35 -11 -53 0 -18 -6 -55 -14 -83 -21 -73 -35
-179 -46 -346 -5 -79 -12 -150 -15 -158 -7 -19 -48 -11 -60 13 -23 47 -69 121
-84 137 -51 55 -78 78 -93 78 -9 0 -20 5 -23 10 -16 26 -113 -3 -176 -52 -20
-15 -42 -28 -48 -28 -6 0 -11 -3 -11 -7 0 -5 -21 -30 -46 -58 -26 -27 -63 -70
-83 -95 -20 -25 -43 -53 -52 -63 -9 -10 -36 -49 -60 -87 -26 -42 -50 -70 -61
-70 -20 0 -48 26 -48 45 0 7 -6 26 -14 42 -18 36 -39 86 -61 143 -42 108 -144
319 -177 365 -73 101 -158 189 -228 237 -25 17 -49 36 -55 43 -12 14 -166 105
-178 105 -5 0 -23 6 -40 14 -101 42 -288 61 -332 32 -14 -9 -36 -16 -50 -16
-14 0 -25 -4 -25 -9 0 -5 -12 -13 -27 -19 -35 -13 -103 -80 -124 -124 -45 -94
-49 -109 -49 -209 0 -95 12 -156 43 -226 15 -33 27 -28 27 12 0 52 54 170 103
226 50 58 75 69 152 69 64 0 75 -3 125 -36 30 -20 81 -62 112 -95 62 -64 158
-204 158 -230 0 -9 7 -30 16 -47 10 -22 16 -62 16 -126 1 -87 -1 -99 -25 -135
-15 -22 -38 -48 -52 -57 -28 -18 -126 -24 -187 -11 -23 5 -38 4 -38 -1 0 -6
44 -55 98 -110 115 -119 157 -142 253 -142 64 0 68 1 107 40 22 22 47 57 57
78 9 20 20 46 25 57 10 21 27 104 39 187 8 54 14 63 36 55 9 -4 15 -19 15 -39
0 -18 6 -62 15 -98 8 -36 22 -110 31 -165 8 -55 20 -118 26 -140 6 -22 14 -62
19 -90 38 -221 79 -347 156 -470 7 -11 16 -29 22 -40 5 -12 21 -32 35 -45 14
-14 26 -29 26 -33 0 -18 157 -165 205 -193 104 -62 172 -77 225 -49 34 18 125
136 193 250 26 44 52 87 57 95 6 8 14 25 20 38 14 32 90 104 131 123 90 44
134 51 283 47 99 -2 149 -7 158 -15 6 -7 20 -13 29 -13 37 0 200 -94 269 -155
40 -35 234 -181 279 -210 67 -42 214 -115 231 -115 9 0 25 -7 36 -15 10 -8 31
-15 45 -15 14 0 34 -7 45 -15 10 -8 35 -15 54 -15 33 0 61 26 527 497 l491
498 -44 3 c-24 2 -54 -2 -66 -9 -34 -18 -507 -25 -618 -10 -47 7 -113 16 -146
21 -34 4 -77 12 -95 18 -19 6 -54 15 -79 22 -107 27 -122 31 -138 39 -9 5 -44
20 -77 33 -145 55 -284 146 -390 252 -44 45 -87 97 -97 116 -52 111 -68 172
-68 260 0 56 4 81 31 190 6 25 15 67 19 94 5 27 14 54 20 60 5 5 10 18 10 28
0 9 6 32 14 50 8 18 22 53 31 78 9 25 23 59 30 75 7 17 15 39 18 50 3 11 15
45 27 75 12 30 26 69 31 85 5 17 13 39 17 50 16 37 34 90 43 130 5 22 13 49
18 60 9 22 27 100 40 180 5 28 14 68 21 90 25 86 0 426 -38 518 -7 16 -12 37
-12 47 0 36 -24 10 -100 -106 -48 -74 -81 -114 -92 -114 -10 0 -29 12 -42 28
-49 55 -66 75 -66 79 0 3 19 30 43 61 67 88 144 223 180 317 26 68 50 190 44
231 -3 22 -11 87 -17 146 -7 59 -17 105 -21 102 -5 -3 -9 -14 -9 -24 0 -10 -4
-22 -10 -25 -5 -3 -10 -16 -10 -29 0 -12 -7 -31 -15 -42 -8 -10 -15 -27 -15
-36 0 -9 -6 -29 -14 -45 -8 -15 -24 -48 -36 -73 -34 -73 -81 -155 -91 -158 -5
-2 -9 -8 -9 -14 0 -20 -82 -108 -101 -108 -11 0 -48 23 -83 50 -76 60 -90 84
-63 112 7 7 35 42 62 78 28 36 56 69 63 73 46 30 -42 114 -203 195 -88 43
-124 56 -295 103 -118 32 -213 41 -440 44 -197 2 -245 0 -295 -14z m620 -170
c150 -23 214 -81 90 -81 -19 0 -46 -5 -62 -11 -15 -6 -48 -14 -73 -19 -111
-20 -210 -73 -210 -114 0 -8 4 -17 9 -21 17 -10 53 -92 49 -111 -2 -15 -13
-20 -46 -22 -74 -5 -132 55 -146 152 -3 21 -7 40 -9 42 -7 7 -122 -18 -154
-34 -26 -13 -34 -13 -47 -3 -14 12 -13 17 10 46 31 41 127 115 149 115 8 0 15
4 15 9 0 12 85 41 154 52 33 5 62 12 65 15 7 7 119 -1 206 -15z"/>
<path d="M5522 9861 c-128 -130 -235 -239 -238 -243 -3 -3 -1 -16 6 -28 13
-25 75 -90 86 -90 4 0 15 -6 23 -13 55 -46 204 -47 369 -1 110 30 168 47 202
59 121 43 314 58 398 32 26 -8 74 -23 107 -33 33 -10 64 -21 68 -24 10 -8 -70
-91 -138 -145 -27 -22 -52 -42 -55 -46 -6 -8 -179 -129 -185 -129 -2 0 -23
-12 -47 -27 -66 -43 -79 -50 -128 -73 -25 -12 -52 -26 -60 -31 -8 -5 -22 -12
-30 -15 -8 -3 -28 -11 -45 -18 -55 -24 -100 -38 -145 -47 -25 -5 -63 -13 -85
-18 -100 -26 -275 -5 -357 41 -42 24 -109 76 -127 100 -28 36 -78 139 -87 182
-18 80 -20 79 -303 -204 -144 -144 -261 -263 -259 -265 57 -64 763 -765 769
-765 5 0 9 26 9 58 0 59 27 184 52 237 36 81 127 181 197 219 87 48 116 57
241 76 108 17 292 -25 431 -98 173 -92 328 -219 428 -352 75 -101 81 -111 95
-152 3 -10 13 -18 23 -18 13 1 53 71 151 268 141 281 241 473 301 572 11 19
27 49 35 65 8 17 28 53 45 80 52 87 71 125 71 140 0 20 -2 19 -57 -13 -26 -16
-55 -31 -63 -36 -8 -4 -42 -22 -75 -40 -71 -40 -354 -182 -440 -221 -33 -15
-73 -33 -89 -41 -16 -8 -34 -14 -41 -14 -6 0 -49 75 -95 166 -46 91 -88 168
-92 170 -4 3 -8 18 -8 34 0 25 7 33 53 55 28 14 59 30 67 35 27 16 208 100
216 100 8 0 179 85 232 114 43 25 141 105 157 130 22 33 13 58 -36 105 -52 50
-135 90 -224 108 -72 15 -119 13 -370 -18 -44 -5 -138 -14 -208 -19 -71 -5
-141 -11 -156 -15 -36 -8 -59 12 -146 125 -165 215 -169 220 -190 219 -12 -1
-112 -95 -253 -238z"/>
<path d="M9985 9880 c-144 -7 -296 -25 -365 -42 -25 -6 -72 -15 -105 -19 -82
-11 -124 -20 -129 -28 -3 -4 43 -40 102 -80 59 -40 127 -88 152 -107 25 -20
59 -46 75 -59 141 -110 198 -159 317 -274 81 -78 175 -182 228 -251 49 -65 90
-121 90 -125 0 -3 12 -24 27 -48 38 -58 51 -79 60 -97 7 -16 107 -167 211
-320 35 -52 91 -137 125 -188 34 -52 63 -89 65 -84 2 6 -9 44 -23 84 -15 40
-29 84 -32 98 -3 14 -11 39 -19 57 -8 17 -14 41 -14 53 0 12 -6 43 -14 69 -25
80 -38 143 -47 221 -33 314 -33 294 0 585 6 44 15 96 20 115 6 19 11 47 11 61
0 15 6 49 14 75 12 43 24 89 42 159 5 17 -6 26 -58 52 -94 47 -117 56 -188 70
-151 32 -266 36 -545 23z"/>
<path d="M9329 9634 c-3 -21 3 -46 17 -72 7 -15 14 -37 14 -49 0 -12 4 -24 9
-28 5 -3 12 -20 16 -38 9 -41 34 -122 52 -164 7 -17 13 -39 13 -48 0 -17 18
-76 47 -158 7 -20 13 -50 13 -65 0 -15 5 -33 10 -38 6 -6 15 -33 20 -60 5 -27
17 -78 26 -114 9 -36 22 -95 28 -131 7 -36 16 -71 20 -77 4 -6 11 -39 16 -74
10 -72 25 -146 46 -235 8 -34 14 -75 14 -92 0 -16 7 -56 15 -88 8 -31 15 -76
15 -99 0 -24 5 -55 10 -69 6 -15 15 -72 20 -128 6 -56 16 -149 23 -207 l13
-105 12 105 c7 58 17 141 22 185 4 44 12 91 18 105 5 14 13 48 17 75 4 28 10
55 15 60 4 6 11 31 14 57 4 26 11 50 17 53 5 4 9 19 9 35 0 72 97 200 182 238
55 25 153 35 246 24 76 -9 93 -3 71 25 -14 16 -19 24 -58 95 -47 86 -269 410
-300 438 -3 3 -31 34 -61 70 -63 73 -107 118 -199 199 -168 148 -241 208 -331
276 -36 26 -80 62 -97 79 -18 16 -34 26 -34 20z"/>
<path d="M10896 9570 c-9 -22 -16 -48 -16 -58 0 -9 -6 -46 -15 -82 -74 -328
-54 -677 57 -1005 5 -16 14 -46 18 -65 10 -42 29 -97 43 -125 6 -11 13 -33 16
-49 4 -16 12 -31 20 -34 14 -5 681 655 681 674 0 13 -767 784 -780 784 -4 0
-15 -18 -24 -40z"/>
<path d="M5186 9451 c-13 -21 27 -178 52 -203 7 -7 12 -15 12 -20 0 -16 68
-74 107 -92 33 -15 65 -19 153 -18 63 0 116 4 123 11 7 5 33 13 57 17 24 4 55
13 69 21 14 7 31 13 38 13 6 0 24 6 40 14 15 8 59 30 98 48 72 34 269 160 281
180 5 8 -7 9 -42 4 -71 -9 -177 -30 -189 -37 -5 -4 -26 -10 -45 -14 -19 -4
-73 -19 -120 -35 -153 -50 -277 -62 -377 -39 -77 18 -170 68 -213 115 -22 23
-42 40 -44 35z"/>
<path d="M7509 9222 c-24 -30 -88 -130 -121 -190 -14 -24 -15 -33 -6 -36 7 -2
47 -10 88 -19 41 -9 101 -21 133 -28 31 -7 58 -10 60 -8 13 20 37 84 37 100 0
11 6 32 14 47 7 15 17 50 21 79 8 60 11 58 -105 67 -36 3 -72 8 -81 11 -11 4
-25 -4 -40 -23z"/>
<path d="M9357 8938 c-3 -13 -15 -48 -27 -78 -12 -30 -25 -66 -29 -80 -19 -59
-108 -245 -170 -355 -48 -85 -160 -255 -181 -275 -3 -3 -37 -43 -75 -90 -38
-47 -90 -107 -116 -135 -125 -136 -137 -150 -131 -162 12 -20 103 -113 112
-113 4 0 23 17 42 38 48 51 105 95 158 119 121 56 119 56 260 56 135 1 197
-10 288 -49 48 -21 55 -18 48 19 -3 17 -8 93 -11 167 -3 74 -10 153 -16 175
-5 22 -14 83 -18 135 -10 107 -27 221 -43 294 -6 26 -14 74 -19 105 -31 209
-57 293 -72 229z"/>
<path d="M7283 8853 c-15 -26 -33 -57 -40 -68 -7 -11 -15 -27 -20 -35 -4 -8
-20 -37 -35 -64 -16 -27 -27 -55 -24 -62 3 -7 22 -15 43 -19 38 -5 131 -24
253 -50 113 -24 136 -26 148 -12 16 19 56 277 44 289 -9 9 -80 27 -152 39 -30
4 -71 13 -90 19 -19 5 -49 10 -67 10 -28 0 -36 -7 -60 -47z"/>
<path d="M7094 8502 c-6 -4 -23 -32 -38 -62 -15 -30 -38 -75 -51 -100 -12 -25
-26 -52 -29 -60 -4 -8 -22 -44 -41 -80 -39 -75 -37 -80 47 -98 29 -6 80 -17
113 -24 33 -7 122 -13 200 -13 117 0 144 -3 165 -17 34 -25 60 -23 60 3 0 11
7 48 14 82 31 130 46 213 46 250 0 32 -3 37 -24 37 -13 0 -43 7 -66 15 -23 8
-54 15 -69 15 -24 0 -66 8 -228 46 -69 16 -83 17 -99 6z"/>
<path d="M10197 8273 c-33 -5 -116 -85 -138 -133 -25 -55 -42 -111 -50 -165
-4 -27 -12 -77 -18 -110 -39 -225 -66 -464 -52 -478 10 -10 100 0 257 28 45 8
91 15 103 15 28 0 481 451 480 477 0 10 -9 32 -20 48 -10 17 -22 37 -26 45 -4
8 -26 49 -50 90 -24 41 -47 82 -52 90 -13 25 -72 60 -100 60 -14 0 -44 7 -67
15 -43 14 -218 27 -267 18z"/>
<path d="M5715 8014 c-38 -57 -89 -228 -75 -253 7 -14 147 -88 255 -136 136
-60 171 -42 140 74 -23 84 -46 131 -102 206 -54 71 -121 124 -167 132 -27 4
-35 1 -51 -23z"/>
<path d="M6822 7951 c-25 -56 -28 -107 -8 -148 8 -15 17 -36 20 -45 11 -36 20
-28 180 147 25 27 42 52 38 56 -12 13 -128 39 -169 39 -36 0 -39 -3 -61 -49z"/>
<path d="M9100 7706 c-30 -7 -77 -25 -105 -41 -51 -28 -135 -110 -135 -132 0
-16 40 -43 65 -43 11 0 29 -7 39 -15 11 -8 31 -15 45 -15 14 -1 37 -7 51 -15
14 -8 36 -14 49 -15 13 0 47 -6 75 -14 127 -36 446 -60 462 -35 9 16 -16 170
-32 196 -14 22 -94 64 -185 99 -96 35 -247 49 -329 30z"/>
<path d="M6372 7075 c-23 -14 -49 -25 -58 -25 -40 0 -22 -33 63 -116 l88 -86
3 32 c2 17 -2 46 -8 63 -7 18 -15 59 -19 91 -3 33 -10 61 -16 62 -5 2 -29 -8
-53 -21z"/>
<path d="M7808 6656 c-80 -15 -102 -30 -163 -111 -37 -50 -48 -68 -75 -125
-63 -130 -96 -187 -132 -226 -44 -47 -106 -84 -141 -84 -33 0 -67 -11 -67 -21
0 -16 174 -189 189 -189 8 0 53 37 100 83 162 154 402 360 534 455 119 87 157
118 157 134 0 19 -110 64 -205 84 -81 16 -105 16 -197 0z"/>
<path d="M8244 6383 c-49 -37 -91 -69 -94 -73 -3 -3 -36 -30 -75 -60 -38 -30
-72 -57 -75 -60 -3 -4 -27 -24 -55 -46 -70 -55 -109 -89 -277 -242 -71 -66
-117 -115 -117 -127 -1 -23 185 -215 208 -215 8 0 51 35 95 78 196 187 399
361 609 519 76 57 137 108 135 113 -2 5 -28 28 -59 52 -31 24 -80 62 -108 86
-29 23 -63 42 -75 42 -13 0 -63 -30 -112 -67z"/>
<path d="M8583 6052 c-95 -72 -214 -165 -265 -208 -185 -156 -438 -393 -438
-410 0 -5 49 -58 109 -118 l110 -110 440 442 c243 243 441 446 441 450 0 5
-21 17 -47 26 -27 9 -61 23 -76 31 -16 8 -45 18 -65 21 -35 5 -46 -1 -209
-124z"/>
<path d="M9707 4153 c-16 -4 -17 -56 -15 -966 l3 -962 255 0 255 0 5 277 c3
165 9 281 15 286 6 6 116 12 245 15 264 5 290 11 450 93 204 104 334 354 317
610 -11 163 -50 276 -133 385 -46 60 -125 135 -159 150 -11 5 -35 18 -54 29
-50 31 -135 57 -240 74 -76 13 -176 16 -510 15 -229 -1 -424 -3 -434 -6z m795
-430 c85 -25 157 -95 177 -173 28 -109 8 -192 -64 -265 -69 -69 -119 -85 -273
-85 -100 0 -121 3 -126 16 -11 28 -7 484 4 505 10 17 22 19 116 19 70 0 125
-6 166 -17z"/>
<path d="M11452 4148 c-9 -9 -12 -228 -12 -957 0 -521 4 -952 8 -959 7 -9 65
-12 258 -10 l249 3 0 965 0 965 -245 3 c-183 2 -249 -1 -258 -10z"/>
<path d="M0 3190 l0 -950 428 1 c432 0 523 5 622 33 119 33 242 94 314 156 85
73 206 223 206 255 0 7 7 18 15 25 8 7 15 18 15 26 0 7 6 28 14 46 27 65 45
145 62 270 16 120 16 136 0 270 -10 79 -21 150 -25 158 -5 9 -12 31 -15 50 -7
34 -12 47 -56 140 -37 80 -103 172 -167 231 -47 46 -170 129 -188 129 -7 0
-20 6 -27 13 -7 6 -29 18 -48 25 -163 61 -263 71 -742 72 l-408 0 0 -950z
m871 514 c95 -28 130 -47 179 -95 55 -53 69 -78 101 -170 21 -58 23 -82 22
-254 0 -199 -4 -220 -55 -333 -25 -57 -105 -133 -159 -153 -126 -46 -143 -49
-282 -49 -76 0 -147 5 -158 10 -18 10 -19 27 -19 530 0 405 3 519 13 523 6 3
78 6 158 6 108 1 161 -3 200 -15z"/>
<path d="M16426 4078 c-87 -48 -135 -119 -143 -213 -6 -75 20 -140 82 -200 42
-41 120 -75 170 -75 81 0 202 80 227 150 5 17 16 30 24 30 11 0 14 18 14 82 0
45 -3 78 -7 75 -10 -10 -33 13 -33 33 0 26 -73 96 -124 120 -61 27 -157 26
-210 -2z m175 -62 c51 -21 95 -71 109 -123 38 -132 -94 -257 -229 -217 -106
31 -159 150 -111 249 26 54 54 79 110 99 48 16 65 15 121 -8z"/>
<path d="M16452 3962 c-9 -6 -12 -36 -10 -113 l3 -104 30 0 c25 0 31 5 35 29
7 42 27 43 44 2 12 -30 20 -36 44 -36 39 0 44 8 25 41 -16 27 -16 31 0 58 44
74 -1 131 -103 131 -30 0 -61 -4 -68 -8z m107 -51 c19 -12 4 -51 -20 -51 -22
0 -34 22 -25 45 6 17 24 19 45 6z"/>
<path d="M14125 4010 l-240 -5 -5 -165 -5 -165 -85 -5 -85 -5 0 -185 0 -185
87 -3 87 -3 4 -377 c4 -386 6 -409 47 -497 41 -88 129 -158 240 -191 93 -27
357 -25 445 4 47 16 59 24 58 39 -7 57 -25 146 -33 168 -6 15 -10 41 -11 58 0
18 -5 48 -12 67 l-12 35 -79 5 c-123 8 -117 -10 -117 371 l0 314 123 5 123 5
3 165 c1 91 0 175 -3 188 -5 21 -10 22 -113 22 -59 0 -113 4 -121 9 -11 7 -14
43 -15 166 -1 149 -2 158 -21 164 -11 3 -128 4 -260 1z"/>
<path d="M12740 3681 c-47 -4 -95 -13 -107 -19 -12 -7 -30 -12 -39 -12 -10 0
-52 -17 -93 -37 -92 -44 -194 -141 -234 -223 -31 -62 -60 -171 -48 -183 4 -4
111 -6 237 -5 l229 3 20 37 c36 66 68 83 160 83 69 0 84 -4 112 -24 56 -42 57
-122 2 -162 -35 -25 -209 -59 -302 -59 -84 0 -212 -33 -305 -79 -64 -31 -138
-107 -173 -178 -34 -68 -34 -69 -34 -208 0 -135 1 -142 29 -190 45 -80 71
-110 128 -147 94 -60 145 -73 304 -72 139 0 182 8 244 45 8 5 25 13 36 18 12
5 48 39 80 75 33 36 62 66 67 66 4 0 7 -36 7 -79 0 -44 3 -86 6 -95 5 -14 35
-16 234 -16 135 0 231 4 235 10 3 5 5 242 5 527 -1 543 -3 564 -47 648 -39 74
-133 160 -218 199 -22 11 -52 25 -67 33 -14 7 -34 13 -45 13 -10 0 -36 6 -58
14 -50 17 -252 26 -365 17z m288 -896 c6 -100 -28 -175 -102 -223 -36 -23 -51
-27 -129 -27 -88 0 -89 0 -118 33 -24 27 -29 41 -29 86 0 47 4 57 33 86 37 35
122 70 177 71 19 0 51 7 70 14 19 8 49 13 65 12 29 -2 30 -4 33 -52z"/>
<path d="M15410 3681 c-41 -4 -85 -12 -97 -19 -12 -7 -30 -12 -40 -12 -29 0
-148 -63 -213 -113 -32 -26 -80 -72 -105 -104 -43 -54 -115 -189 -115 -216 0
-6 -8 -32 -17 -57 -12 -35 -16 -83 -16 -220 -1 -178 10 -245 49 -323 8 -16 14
-33 14 -37 0 -15 63 -115 95 -151 120 -135 278 -211 470 -225 121 -10 99 -10
220 -1 114 9 182 26 275 70 151 72 236 164 305 333 33 81 40 79 -221 82 l-230
2 -25 -37 c-13 -21 -44 -49 -69 -63 -39 -21 -57 -24 -135 -24 -70 0 -97 5
-120 19 -72 45 -107 95 -118 171 -12 78 -39 74 473 76 l455 3 3 120 c3 121
-11 216 -44 293 -8 18 -14 37 -14 42 0 22 -77 137 -131 194 -81 87 -176 142
-309 179 -66 18 -237 27 -340 18z m265 -396 c58 -39 95 -95 95 -145 l0 -30
-225 0 -225 0 0 38 c0 52 46 114 107 146 38 20 63 25 121 26 68 0 78 -3 127
-35z"/>
<path d="M2663 3649 c-24 -11 -43 -24 -43 -29 0 -6 -7 -10 -15 -10 -26 0 -115
-144 -115 -187 0 -24 -25 -42 -38 -28 -4 3 -9 64 -12 133 l-5 127 -228 0
c-126 0 -233 -3 -238 -6 -12 -7 -12 -1390 -1 -1401 5 -5 114 -7 243 -6 l234 3
5 395 c4 231 10 410 16 431 50 165 228 237 432 174 l22 -7 0 204 c0 145 -3
207 -12 216 -21 21 -195 14 -245 -9z"/>
<path d="M3460 3654 c-19 -7 -43 -13 -53 -13 -48 -2 -197 -92 -252 -152 -50
-55 -108 -174 -122 -251 l-5 -28 231 0 c220 0 231 1 231 19 0 10 18 37 40 59
34 33 51 42 102 51 116 20 208 -34 208 -124 0 -38 -5 -47 -41 -78 -27 -24 -54
-37 -82 -40 -23 -3 -62 -10 -87 -16 -25 -5 -76 -10 -113 -11 -139 0 -312 -55
-403 -127 -83 -65 -145 -205 -144 -327 0 -49 25 -149 51 -203 32 -67 145 -163
191 -163 7 0 26 -7 43 -16 23 -12 63 -15 177 -15 80 0 155 4 165 9 10 5 43 21
75 36 63 30 136 97 151 139 6 18 15 27 26 25 13 -3 17 -20 21 -93 l5 -90 228
-3 227 -2 0 539 c0 304 -4 542 -9 545 -5 3 -12 17 -15 30 -19 78 -131 194
-231 239 -22 10 -53 25 -68 33 -16 8 -40 14 -53 14 -14 0 -41 7 -61 15 -47 20
-380 19 -433 -1z m378 -893 c3 -86 1 -97 -22 -132 -32 -48 -79 -83 -136 -103
-60 -21 -99 -20 -153 3 -56 24 -87 66 -87 119 0 93 73 154 207 172 32 5 81 15
108 23 80 24 80 25 83 -82z"/>
<path d="M4960 3651 c-99 -37 -136 -59 -199 -121 -128 -123 -196 -326 -196
-585 0 -116 20 -268 41 -307 8 -14 14 -33 14 -40 0 -8 11 -35 25 -59 14 -24
28 -51 32 -59 16 -35 113 -129 156 -152 104 -55 211 -81 309 -75 166 11 261
56 348 164 5 6 12 23 16 38 4 17 12 25 23 23 14 -3 16 -26 19 -175 3 -215 -4
-234 -115 -295 -48 -28 -210 -25 -266 3 -45 23 -62 40 -77 77 -9 22 -10 22
-250 22 -225 0 -241 -1 -236 -17 3 -10 8 -31 11 -48 13 -63 70 -157 127 -210
52 -49 185 -125 217 -125 7 0 27 -6 44 -14 36 -15 210 -36 302 -36 213 0 416
57 535 150 94 73 140 138 184 260 14 41 16 125 14 815 l-3 770 -240 -1 -240 0
-2 -100 c-3 -107 -9 -144 -22 -144 -4 0 -25 27 -45 60 -57 93 -122 148 -216
183 -62 23 -246 22 -310 -2z m456 -372 c45 -27 89 -84 113 -148 31 -76 30
-285 0 -365 -65 -169 -222 -222 -352 -119 -15 12 -43 52 -62 89 l-35 68 0 146
c0 106 4 151 14 165 7 11 16 31 19 45 9 35 69 104 109 123 49 24 152 22 194
-4z"/>
<path d="M6795 3652 c-33 -8 -73 -21 -90 -28 -16 -7 -37 -15 -45 -18 -39 -15
-113 -65 -157 -106 -129 -121 -191 -256 -212 -465 -12 -117 2 -291 29 -365 21
-57 74 -161 87 -172 7 -6 13 -15 13 -20 0 -29 206 -198 240 -198 7 0 24 -6 38
-14 81 -41 143 -51 328 -51 115 0 190 4 205 12 13 6 56 21 94 33 39 12 77 29
86 36 8 8 19 14 23 14 18 0 116 84 159 137 26 32 52 63 57 70 6 7 10 18 10 26
0 7 5 18 12 25 13 13 31 59 56 142 22 74 22 379 0 460 -67 250 -236 417 -487
481 -94 24 -352 25 -446 1z m325 -360 c64 -47 93 -97 119 -205 14 -61 14 -223
0 -284 -34 -143 -124 -243 -219 -243 -30 0 -88 26 -120 52 -27 22 -80 95 -80
109 0 8 -7 32 -15 54 -9 27 -14 83 -15 170 0 108 4 141 21 190 60 172 196 241
309 157z"/>
<path d="M8795 3661 c-3 -5 -20 -13 -38 -16 -50 -11 -161 -90 -193 -137 -16
-24 -32 -44 -36 -46 -5 -2 -8 -14 -8 -27 0 -12 -7 -29 -16 -36 -14 -11 -18
-10 -30 6 -10 14 -13 48 -12 127 1 59 -2 111 -6 115 -9 9 -432 12 -447 3 -7
-5 -14 -953 -9 -1402 0 -5 108 -8 240 -8 132 0 240 3 240 8 0 4 2 189 3 412 2
223 8 426 14 452 12 56 49 108 99 139 31 19 51 23 114 22 110 -1 162 -32 202
-123 18 -42 19 -72 21 -475 l2 -430 248 -3 247 -2 0 485 c0 554 -2 573 -78
723 -41 81 -153 170 -256 205 -55 19 -290 25 -301 8z"/>
<path d="M9970 803 c-23 -10 -49 -46 -50 -70 0 -35 47 -83 82 -83 32 0 71 33
83 69 17 54 -56 107 -115 84z"/>
<path d="M2274 791 c-10 -2 -22 -8 -26 -15 -14 -20 -9 -671 4 -684 19 -19 295
-16 354 4 104 35 144 89 144 193 0 59 -4 73 -29 109 -16 22 -35 43 -41 47 -7
5 -3 18 14 39 25 33 32 76 28 158 -3 50 -70 117 -138 137 -45 14 -259 22 -310
12z m296 -150 c31 -22 38 -66 13 -93 -30 -33 -69 -48 -128 -48 -50 0 -56 2
-65 26 -13 33 -13 100 0 124 9 17 19 18 83 13 45 -3 81 -11 97 -22z m6 -279
c12 -9 29 -29 38 -44 16 -24 16 -29 2 -55 -20 -41 -55 -53 -145 -53 -73 0 -79
2 -85 23 -8 30 -8 132 1 140 3 4 43 7 87 7 62 0 86 -5 102 -18z"/>
<path d="M3828 781 c-14 -12 -28 -33 -31 -48 -5 -27 -10 -41 -58 -163 -11 -30
-23 -66 -26 -80 -3 -14 -12 -34 -19 -45 -8 -11 -14 -29 -14 -40 0 -12 -5 -26
-11 -32 -6 -6 -14 -26 -19 -44 -5 -19 -18 -59 -30 -89 -43 -112 -52 -142 -42
-152 5 -5 35 -8 66 -6 l58 3 20 50 c45 112 51 125 62 126 37 4 208 -1 216 -6
6 -3 10 -16 10 -28 1 -12 7 -33 15 -47 8 -14 14 -34 15 -46 0 -37 32 -55 91
-52 53 3 54 4 53 33 -1 17 -11 55 -23 85 -13 30 -26 66 -31 80 -5 14 -18 50
-30 80 -12 30 -25 70 -30 88 -4 18 -12 38 -18 45 -5 7 -12 23 -15 37 -3 14
-15 50 -27 80 -12 30 -25 66 -30 80 -26 81 -40 100 -69 100 -16 0 -36 2 -43 5
-8 3 -26 -3 -40 -14z m88 -291 c3 -14 10 -38 16 -53 14 -37 -1 -48 -57 -45
-39 3 -40 4 -39 38 1 19 7 51 14 70 7 19 15 42 17 50 5 19 40 -24 49 -60z"/>
<path d="M4262 791 c-10 -6 -13 -80 -14 -350 0 -213 3 -346 9 -352 6 -6 32 -9
59 -7 l49 3 3 349 c2 273 -1 351 -10 358 -17 10 -79 10 -96 -1z"/>
<path d="M4493 789 l-23 -8 0 -345 c0 -304 2 -345 16 -350 27 -10 99 -7 112 6
13 13 18 664 4 684 -10 15 -82 23 -109 13z"/>
<path d="M5933 793 c-20 -4 -22 -11 -25 -86 l-3 -82 -35 2 c-19 1 -53 3 -75 4
-85 5 -165 -39 -204 -113 -33 -62 -45 -149 -31 -225 17 -89 51 -148 109 -184
40 -25 56 -29 122 -29 43 0 80 5 86 11 9 9 19 9 41 0 16 -7 49 -11 73 -9 l44
3 3 348 2 347 -26 10 c-26 10 -41 11 -81 3z m-56 -321 c44 -56 40 -189 -8
-241 -23 -26 -35 -31 -73 -31 -42 0 -48 3 -76 42 -27 37 -30 49 -30 115 0 61
4 79 23 105 28 39 52 49 102 42 27 -3 47 -14 62 -32z"/>
<path d="M6548 781 c-44 -20 -68 -50 -92 -110 -16 -41 -16 -47 0 -97 9 -30 23
-59 30 -65 23 -19 16 -39 -30 -91 -33 -36 -47 -60 -51 -93 -15 -98 24 -182
105 -224 55 -29 184 -30 235 -2 38 20 67 18 86 -5 13 -16 134 -20 144 -4 6 10
-64 110 -77 110 -14 0 -9 50 8 74 10 17 14 43 12 88 l-3 63 -55 0 c-51 0 -55
-2 -58 -25 -6 -54 -11 -55 -52 -14 -22 21 -39 46 -40 54 0 9 18 33 40 54 66
62 85 129 56 197 -39 93 -161 135 -258 90z m113 -111 c29 -16 25 -70 -7 -93
-34 -25 -57 -18 -65 21 -5 24 -2 39 13 57 22 28 30 30 59 15z m-38 -336 c12
-14 34 -40 50 -57 47 -54 34 -77 -46 -77 -49 0 -97 39 -97 79 0 26 41 81 60
81 6 0 20 -12 33 -26z"/>
<path d="M7493 789 c-12 -4 -26 -22 -32 -41 -5 -18 -19 -58 -31 -88 -12 -30
-24 -66 -27 -80 -3 -14 -10 -30 -15 -37 -6 -7 -14 -27 -18 -45 -5 -18 -18 -58
-30 -88 -12 -30 -25 -66 -30 -80 -5 -14 -18 -50 -30 -80 -12 -30 -24 -66 -28
-80 -3 -14 -12 -35 -19 -47 -22 -33 -8 -43 63 -43 53 0 66 3 70 18 12 38 36
99 52 131 l17 34 94 1 c107 2 132 -7 142 -49 4 -17 15 -51 25 -78 18 -53 33
-60 105 -55 40 3 44 5 43 28 -1 14 -11 50 -24 80 -12 30 -26 71 -32 90 -5 19
-14 39 -19 44 -5 6 -9 19 -9 31 0 11 -6 29 -14 40 -7 11 -16 31 -19 45 -3 14
-15 50 -26 80 -44 113 -53 136 -58 160 -3 14 -12 34 -19 45 -8 11 -14 27 -14
37 0 9 -5 20 -10 23 -17 11 -84 13 -107 4z m63 -260 c8 -17 22 -51 29 -75 12
-41 12 -45 -6 -55 -11 -5 -34 -9 -52 -7 -28 3 -32 7 -35 35 -2 18 4 43 12 55
9 12 16 32 16 44 0 18 8 34 16 34 2 0 11 -14 20 -31z"/>
<path d="M12623 792 c-13 -2 -23 -11 -24 -20 -3 -54 3 -678 7 -684 8 -13 109
-9 122 4 14 14 17 664 3 687 -9 13 -64 20 -108 13z"/>
<path d="M10729 728 c-1 -7 -1 -17 1 -23 1 -5 -1 -24 -5 -41 -5 -27 -11 -33
-41 -38 l-35 -7 3 -51 c3 -49 5 -52 38 -63 l35 -12 3 -163 c3 -179 7 -192 73
-232 38 -23 141 -25 159 -3 27 33 -17 126 -53 112 -8 -3 -24 1 -36 9 -20 14
-21 24 -21 143 0 143 2 148 65 153 l40 3 3 51 c3 56 -5 64 -69 64 -31 0 -39
15 -39 71 l0 39 -60 0 c-41 0 -60 -4 -61 -12z"/>
<path d="M4890 629 c-14 -6 -52 -7 -86 -4 -113 13 -105 34 -102 -273 l3 -267
60 0 60 0 5 180 c6 229 9 235 116 235 l54 0 0 58 c0 32 -5 63 -12 70 -14 14
-63 15 -98 1z"/>
<path d="M5204 626 c-101 -25 -159 -93 -180 -211 -13 -77 -2 -176 23 -206 7
-8 13 -20 13 -25 0 -14 58 -65 97 -87 46 -25 179 -24 231 3 54 29 92 71 99
112 6 40 4 41 -74 53 -36 6 -44 4 -50 -12 -13 -34 -46 -52 -95 -53 -41 0 -51
5 -83 37 -19 20 -34 41 -32 47 2 7 56 12 151 13 197 2 196 1 196 62 0 97 -20
150 -76 206 -38 39 -62 54 -90 59 -22 3 -48 8 -59 10 -11 3 -43 -1 -71 -8z
m133 -149 c15 -15 21 -29 17 -40 -5 -14 -20 -17 -89 -17 -98 0 -117 12 -85 53
34 43 116 45 157 4z"/>
<path d="M8038 625 c-25 -5 -64 -24 -86 -42 -76 -61 -78 -174 -4 -231 39 -30
124 -62 162 -62 15 0 37 -11 50 -25 l24 -25 -22 -21 c-18 -16 -33 -19 -74 -17
-47 3 -55 7 -76 38 -14 21 -30 34 -40 32 -85 -16 -87 -17 -90 -44 -5 -41 35
-97 95 -130 42 -24 180 -25 226 -2 77 39 115 107 102 183 -11 63 -81 120 -165
134 -60 9 -110 35 -110 57 0 22 28 40 64 40 27 0 76 -19 76 -30 0 -3 6 -14 13
-24 13 -18 16 -18 65 -2 39 13 52 22 52 37 0 24 -38 81 -71 108 -33 26 -131
39 -191 26z"/>
<path d="M8524 626 c-106 -26 -156 -96 -139 -195 10 -60 59 -102 142 -124 110
-29 115 -31 127 -49 8 -13 6 -22 -8 -37 -15 -16 -31 -21 -71 -21 -50 0 -53 2
-79 41 -21 30 -32 39 -44 33 -9 -3 -33 -10 -52 -13 -25 -4 -36 -12 -38 -26 -4
-31 39 -96 83 -127 36 -25 49 -27 127 -28 70 0 96 4 128 21 96 50 124 172 56
247 -23 26 -95 62 -123 62 -10 0 -40 9 -68 19 -40 15 -50 23 -50 42 0 19 7 26
38 33 49 12 88 -1 105 -37 15 -32 32 -33 90 -7 47 21 46 19 33 53 -35 91 -146
140 -257 113z"/>
<path d="M9055 630 c-16 -4 -41 -10 -55 -14 -29 -6 -89 -58 -111 -96 -43 -73
-55 -179 -30 -260 41 -127 110 -180 235 -180 91 0 140 22 189 84 36 44 67 132
67 188 0 44 -26 134 -52 176 -29 47 -77 80 -142 97 -63 17 -59 16 -101 5z
m122 -158 c34 -42 43 -121 23 -194 -14 -50 -52 -78 -104 -78 -35 0 -48 6 -77
36 -33 34 -34 37 -34 117 0 71 3 87 23 112 28 36 54 45 107 39 28 -3 47 -13
62 -32z"/>
<path d="M9591 626 c-63 -13 -127 -64 -162 -128 -20 -37 -23 -57 -23 -148 0
-96 2 -109 26 -145 63 -98 109 -125 212 -125 94 0 143 22 187 82 24 34 29 51
27 83 l-3 40 -53 3 c-43 3 -53 0 -59 -15 -3 -10 -17 -30 -31 -46 -31 -33 -95
-37 -127 -9 -61 53 -75 168 -29 235 47 70 129 75 175 9 25 -34 31 -37 75 -37
l49 1 3 37 c4 44 -24 96 -68 127 -23 17 -134 54 -143 49 -1 -1 -26 -6 -56 -13z"/>
<path d="M10320 626 c-65 -14 -99 -35 -134 -81 -37 -48 -34 -67 17 -87 56 -24
63 -23 95 13 49 55 162 47 162 -11 0 -22 -4 -23 -125 -44 -85 -15 -116 -27
-155 -64 -22 -21 -25 -31 -25 -100 0 -66 3 -82 24 -110 14 -17 30 -32 37 -32
6 0 17 -7 24 -15 15 -18 169 -22 187 -4 8 8 17 8 32 -1 12 -6 45 -10 74 -8
l52 3 0 215 c0 204 -1 217 -22 250 -12 19 -32 41 -45 49 -19 12 -123 42 -138
40 -3 -1 -30 -6 -60 -13z m138 -340 c3 -20 -5 -37 -24 -57 -24 -25 -36 -29
-79 -29 -28 0 -56 5 -63 12 -16 16 -15 55 0 65 16 10 140 41 153 39 6 -2 11
-15 13 -30z"/>
<path d="M11188 625 c-55 -15 -99 -44 -128 -85 -27 -38 -60 -143 -60 -190 0
-57 30 -140 66 -186 51 -63 99 -84 194 -84 94 0 143 21 190 80 48 60 38 100
-25 100 -24 0 -49 22 -38 33 3 4 23 7 43 7 55 0 64 16 55 107 -12 128 -68 195
-187 222 -54 13 -49 13 -110 -4z m109 -125 c35 -13 58 -51 40 -69 -6 -6 -46
-11 -93 -11 -93 0 -112 14 -73 56 30 32 77 41 126 24z m73 -215 c0 -8 -14 -30
-31 -50 -28 -31 -37 -35 -79 -35 -38 0 -55 6 -79 26 -29 24 -39 52 -24 67 3 4
53 7 110 7 84 0 103 -3 103 -15z"/>
<path d="M11720 630 c-14 -4 -37 -11 -52 -14 -40 -9 -94 -70 -102 -114 -9 -58
3 -108 35 -140 26 -27 70 -45 198 -80 38 -11 49 -37 27 -61 -15 -16 -31 -21
-71 -21 -50 0 -53 2 -79 41 -21 30 -32 39 -44 33 -9 -3 -33 -10 -52 -13 -25
-4 -36 -12 -38 -26 -4 -31 39 -96 83 -127 36 -25 49 -27 127 -28 125 0 178 29
214 118 29 74 -6 151 -88 193 -21 10 -48 19 -60 19 -13 0 -45 9 -73 19 -83 31
-67 81 27 81 22 0 39 -10 62 -35 18 -19 37 -35 42 -35 14 0 94 39 94 46 0 2
-6 19 -14 37 -21 49 -67 87 -127 102 -60 16 -73 17 -109 5z"/>
<path d="M13050 629 c-19 -5 -65 -7 -102 -4 -114 10 -108 26 -108 -268 0 -184
3 -256 12 -265 16 -16 100 -16 116 0 8 8 12 65 12 187 1 161 2 178 21 200 28
34 99 36 131 3 22 -21 23 -32 28 -210 l5 -187 55 0 55 0 3 210 c2 185 0 214
-15 243 -23 42 -69 77 -113 86 -19 4 -42 9 -50 11 -8 1 -31 -1 -50 -6z"/>
<path d="M13551 626 c-64 -13 -128 -64 -161 -128 -18 -36 -22 -60 -23 -139 0
-133 30 -195 123 -254 34 -21 52 -25 120 -25 67 0 86 4 118 24 48 30 87 81 95
125 9 44 -6 61 -53 61 -50 0 -70 -8 -70 -29 -1 -56 -115 -84 -157 -38 -57 62
-69 152 -30 222 43 76 131 86 176 20 17 -26 31 -35 51 -35 16 0 34 -2 42 -5 7
-3 21 0 31 7 53 40 -47 179 -139 193 -25 3 -52 8 -58 10 -6 1 -35 -2 -65 -9z"/>
<path d="M2809 620 c-18 -11 -17 -14 31 -140 12 -30 25 -70 30 -89 5 -18 13
-38 19 -44 6 -6 11 -20 11 -32 0 -11 6 -29 14 -40 7 -11 16 -31 19 -45 3 -14
13 -45 22 -69 18 -51 13 -85 -17 -118 -15 -16 -28 -21 -47 -17 -18 4 -32 0
-40 -10 -12 -14 -2 -16 103 -16 102 0 117 2 122 17 3 10 10 27 16 38 6 11 15
33 19 50 4 16 17 55 29 85 12 30 25 66 30 80 5 14 18 50 30 80 12 30 25 66 30
80 5 14 18 50 31 80 12 30 22 69 23 85 1 29 0 30 -51 33 -59 3 -93 -19 -93
-61 0 -13 -5 -28 -11 -34 -6 -6 -14 -26 -19 -44 -21 -88 -59 -171 -74 -166 -6
2 -14 17 -17 33 -8 33 -25 84 -45 132 -8 18 -14 39 -14 48 0 8 -9 33 -20 54
-19 38 -23 40 -68 40 -26 0 -54 -5 -63 -10z"/>
<path d="M9949 614 c-6 -7 -8 -114 -7 -270 l3 -259 60 0 60 0 3 268 c1 147 -1
267 -5 268 -76 5 -106 3 -114 -7z"/>
<path d="M13939 235 c-69 -37 -34 -154 46 -154 48 0 75 29 75 81 0 49 -6 60
-37 77 -28 14 -52 13 -84 -4z"/>
<path d="M12087 223 c-4 -3 -7 -25 -7 -47 0 -23 -7 -66 -15 -96 -22 -81 -23
-80 43 -80 59 0 59 0 74 38 20 47 42 168 33 181 -7 12 -117 15 -128 4z"/>
</g>
</svg>
